<?xml version="1.0"?>
<svg id="Layer_1" xmlns="http://www.w3.org/2000/svg" xmlns:xlink="http://www.w3.org/1999/xlink" viewBox="0 0 736.9 607.9">
  <defs>
    
    <linearGradient id="linear-gradient" x1="368.5" y1="503.3" x2="368.5" y2="14.9" gradientUnits="userSpaceOnUse">
      <stop offset="0" stop-color="#ffb900"></stop>
      <stop offset="1" stop-color="#ff433c"></stop>
    </linearGradient>
  </defs>
  <path class="cls-2" d="M729.4,315.6c-1.6-3.1-3.4-5.9-5.4-8.4-5.7-7.7-12.6-13.7-19.7-18.4,2.9-.9,5.6-2,8.1-3.5,3.9-2.2,6.5-4.7,8.1-6.3h0c0,0,.3-.3.3-.3l.3-.3c6.4-7.1,9.5-16.4,9.4-27.6v-.3s0-.4,0-.4v-.5c-.6-10.9-6.6-26.9-31.7-41.1h0s0,0,0,0c-13.1-7.2-28.3-11.1-44.2-11.1h-3.6c-.7,0-1.3,0-1.8,0-9.2-25.3-21.6-49.3-37-71.4-17.8-25.5-39.1-47.9-63.5-66.5-24.7-18.9-52-33.7-81-43.8C437.5,5.3,406.1,0,374.1,0,323.3,0,275.6,13.7,232.3,40.7c-36,22.5-68.3,54.3-93.8,92.2-4.6.5-10.8,1.4-18.2,3-2.4.5-22.6,5.5-40.1,14.1-26,12.8-44.2,30.1-54.2,51.3h0c0,0,0,.1,0,.1-8.7,18.8-8.1,34.1-7.4,40,.8,7.3,2.5,14.6,4.9,21,5.5,14.4,14.7,24.3,26.7,28.8,2.3.9,8,2.8,15.1,2.8s11.3-1.2,16.2-3.5c-.2,2.8-.4,5.6-.6,8.4l-.4.2-1.8.8h0s0,0,0,0c-15,6.6-28.4,14.9-39.8,24.8C16.6,344,3.4,368.2.6,394.9c-5.4,50.4,26.5,92.4,58.4,110.1h0s0,0,0,0c7.7,4.2,16.1,7.5,25.9,10.1,12.3,3.4,25.1,5.2,38.3,5.2s27.5-2.2,36.6-3.8h.2c2-.4,3.7-.7,5.4-1.1,1.2,2.7,3,5.2,5.1,7.4,12.1,12.1,25.3,23.2,39.3,32.9,4.1,2.9,9,4.4,14.1,4.4h29.2c-.4,1.1-.7,2.2-1,3.3-1.9,9.4,3,18.5,11.8,22.2,35,14.7,72.1,22.1,110.1,22.1s75.1-7.4,110.1-22.1c8.8-3.7,13.6-12.8,11.8-22.1-.2-1.2-.6-2.3-1-3.3h29.2c5.1,0,10-1.5,14.1-4.4,13.9-9.8,27.1-20.8,39.3-32.9,7.1-7,9.2-17.6,5.4-26.8-.2-.4-.3-.8-.5-1.1h7.6c7.9,0,15.5-3.9,20.1-10.4,8.7-12.1,16.5-25.1,23.4-38.4,3.7-7.1,3.6-15.4,0-22.4,5.1.7,10.3,1.1,15.7,1.1,27.9,0,52.8-10,68.4-27.4,4-4.3,7.4-9.1,10.1-14.1,5.3-9.8,8.4-21,9.1-32.3.7-12.7-1.9-24.9-7.4-35.4ZM109.3,444c-8.7-3-25.1-10.7-29.7-26.7h0c0,0,0-.1,0-.1-2.9-9.8-.2-19.5.5-21.8,0-.1,0-.2.1-.4,1.8-5.3,4.3-10,7.4-13.9l.5-.7.6-.6c1.7,7,3.7,13.9,6,20.8-.1,2.3-.2,4.7-.4,7.1v.4s0,2.8,0,2.8c0,1.7.1,7.5,1.5,12.7.8,3.3,3.3,10.8,10.2,17,1.1,1,2.2,1.9,3.2,2.6v.7Z"></path>
  <path class="cls-3" d="M715.2,321.8c-1.4-2.7-2.7-4.6-3.8-5.8-13-17.8-33.9-24.5-46.7-28.4-2.1-.7-4.3-1.4-6.7-2.1-.7-.2-1.2-.3-1.9-.5-.7-.2-1.2-.4-1.7-.5-1.2-.5-2.4-.8-3.6-1.4-.5-8.3-1.4-16.5-2.6-24.6h.2c.3,0,.3-.2.7-.2h1c2.4,0,4.3.5,5.3.9,3.6.9,4.3,2.1,11.8,6.3,3.4,1.9,5.8,3.2,8.4,4.3,1,.5,8.4,3.6,16.4,3.6s8.6-.9,12.3-3.1c2.7-1.5,4.3-3.2,4.8-3.8,5.8-6.5,5.3-15.1,5.3-17.3-.9-15.2-19.7-25.8-23.6-28.1-10.8-6-23.6-9.1-36.4-9.1h-3.6c-.5,0-.8.2-1.2.2-1,0-2.1.2-3.1.2s-1,.2-1.5.2h-.2c-.3,0-.5.2-.7.2h-.3c-.3,0-.5,0-.9.2h-1c-.2.2-.5.2-.9.2,0,0-.2,0-.4.2h-.8c-.7.2-1.2.3-1.9.5C602,98.4,497.5,14.9,374.1,14.9s-179.1,58.1-226.5,132.2h-.5c-.5,0-1.2,0-1.7.2h-1.4c-.3.2-.9.2-1.2.2-.9.2-1.5.2-2.2.3h-.4c-1.2.2-2.4.2-3.4.4-.3.2-.8.2-1.2.2-1,.2-2.2.3-3.2.5-.3,0-.9.2-1.4.2l-.2.2c-.3,0-.7,0-1,.2-.3,0-.7,0-.8.2-.7,0-1.2.2-1.9.2-.5.2-1,.3-1.4.3-.5.2-.9.2-1.2.3-7.3,1.5-64.1,14.2-84.1,56.8-7,15.2-6.5,27.4-6,31.5.3,3.4,3.1,29.9,21.4,36.6.8.3,4.6,1.7,9.4,1.7s7.7-.7,11.5-3.1c8.6-5.1,12.1-15.7,11.3-23.6-.3-3.2-1.4-4.9-2.2-8.2-.2-.5-.7-2.9-.9-4.8,0,0-.9-6.3.9-13.3,1-4.1,5.3-12.8,20.7-21.2.5-.4,1-.5,1.5-.9.3-.2.7-.3,1-.5s.9-.3,1.2-.5c.3-.2.7-.3,1-.5.2-.2.5-.2.7-.3.5-.3,1.2-.5,1.7-.9.7-.2,1.2-.5,1.9-.7.5-.3,1-.5,1.7-.7.8-.5,1.9-.9,2.9-1.2,0,0,.2,0,.2-.2.7-.2,1-.3,1.5-.5h0c-15.2,35.5-23.9,72.4-25.2,106.9,0,2.1-.1,4.2-.2,6.3h-.1c-1,.4-2.2.8-3.2,1.1-1.2.5-2.4.9-3.6,1.4-.4.2-.7.4-1,.4-1.2.5-2.4,1-3.6,1.5-9.8,4.3-62.6,27.7-68.4,82.1-4.6,43.4,23.8,79.7,50.3,94.4,8.7,4.8,17.3,7.4,22.4,8.7,12.1,3.4,23.6,4.6,34,4.6s25.3-2.1,34-3.6c8.7-1.5,13-2.9,24.3-5.8.5-.2,1.2-.3,1.9-.5h.3c.3-.2.8-.3,1.4-.3,1.7-.5,3.4-1,5.5-1.4.3-.2.8-.3,1.4-.5h.5c.3-.2.7-.2,1-.4,1.4-.3,2.7-.7,4.1-1,.7-.2,1.4-.3,2.1-.5.3,0,.9-.2,1.2-.3.3,0,.7-.2,1.2-.2,0,0,.2,0,.3-.2.5,0,1-.2,1.4-.3.7-.2,1.2-.2,1.7-.3.3-.2.9-.2,1.2-.4,1.9-.5,3.8-.9,5.8-1.4.5-.2,1-.4,1.5-.4.7-.3,1.5-.5,2.2-.7.3,0,.9-.2,1.4-.2,0-.2.2-.2.3-.2.7-.2,1.5-.3,2.2-.5,1.7-.5,3.4-.9,5.3-1.4.3,0,.9-.2,1.4-.2.5-.2,1.2-.3,1.7-.5.9-.2,1.5-.3,2.2-.5,3.9-1,7.9-1.9,11.8-2.7.7-.2,1.5-.3,2.2-.5.8-.2,1.6-.5,2.4-.6h342.8c2.8,0,5.4-1.4,7-3.7,8.2-11.5,15.6-23.7,22.2-36.4,2.9-5.7-1.2-12.6-7.6-12.6h-250.6c-26.4,4.7-51.1,9-74.1,13-76.9,13.1-132.8,21.6-155.3,23.4-1,0-2.9.2-5.5.2-4.3,0-10.6-.3-17.4-2.2-4.3-1.2-36.2-10.3-44.5-38.8-3.9-13.3-1-26.2.7-31.5.5-1.4,3.2-10.3,10.1-19,.2-.5.5-.9.9-1.2.2-.3.5-.5.7-.9.3-.3.7-.7,1-1.2,1-1.2,2.2-2.2,3.2-3.2.5-.5,1-1,1.5-1.4,0,0,0-.2.2-.2.3-.3.8-.7,1.2-1.2q.2,0,.2-.2c.4-.2.5-.3.9-.5l.7-.7c.5-.4,1-.7,1.5-1l.2-.2c.2-.2.5-.3.9-.5.2-.2.5-.4.7-.5,1.2-.9,2.2-1.5,3.4-2.2.5-.3,1-.7,1.5-.9,0,0,.2,0,.2-.2.5-.2,1-.5,1.7-.9.2-.2.5-.3.7-.3.3-.2.7-.3.9-.5.5-.2.9-.3,1.4-.7q.2,0,.3-.2c.2,0,.5-.2.7-.3h0c2.6,16.8,6.7,32.3,11.4,46.2,0,0,0,.1,0,.1-.2,3.2-.3,6.5-.5,9.9v2.4c0,.2,0,5.1,1,8.7.4,1.5,1.7,5.8,5.5,9.2,2.2,2.1,4.4,2.9,5.5,3.4.5.2,1,.3,1.4.5.2,0,.3,0,.7.2.2.2.5.2.7.2s.2,0,.2.1c0,0,0,0,0,0,0,0,0,0,0,0,3.2,6.5,10.5,10,17.6,8.2,57.3-14.3,107.2-22.9,146.6-28.3,3.9-.5,8.8-1.2,14.7-1.9,2.7-.3,5.6-.7,8.6-1.1h0c26.6-3.2,67.6-7.2,118.5-9,27.4-1,57.6-1.4,90.1-.7,4.1,0,8,.2,12,.3,34.1,1,63.6,2.9,87.1,5,1.5.1,2.9,0,4.3-.2h0c.3.2.5.3.9.3.2.2.3.2.7.2.2.2.5.2.7.2.4.2.7.2,1,.3h.5c.2,0,.2.2.4.2h.3c6.3,1.4,13,2.1,19.8,2.1,21.2,0,42.9-6.8,56.6-22.2,2.4-2.6,5.3-6.1,7.9-10.9,8-14.9,10.6-35.7,1.5-52.7ZM665.6,355.2c-3.2,4.8-9.6,5.5-12.5,5.6-1,.2-1.9.2-2.9.2h-1.4c-.2,0-.5-.2-.8-.2h-1.2c-.2,0-.5-.2-.9-.2h0c.6-2.8,1.2-5.7,1.7-8.6,0,0,1.2-7.2,2.3-17.9h0s0,0,0,0c1.9.7,3.6,1.2,5.1,1.9.5.2,1,.3,1.4.5,1.4.7,2.6,1.2,3.6,1.7.3.2.5.3.7.3.2.2.3.3.7.3,1,.7,1.9,1.4,2.7,2.1,0,0,.2.2.3.3.2.2.3.4.5.4,0,.2.2.3.3.5,0,.2.2.2.3.3.2.2.3.3.3.5.2.2.3.4.3.7.2.2.4.3.4.5v.2c.2.2.2.3.3.5,0,.2.2.5.2.7.2.3.2.5.2.7.7,2.7.2,6.3-1.7,8.9Z"></path>
  <path class="cls-1" d="M478,571c-32.1,13.5-67.2,20.9-103.9,20.9s-71.8-7.4-104-20.9c-3.8-1.6-2.7-7.3,1.4-7.3h205c4.2,0,5.3,5.7,1.4,7.3Z"></path>
  <path class="cls-1" d="M566.3,511.5c-11.5,11.4-23.9,21.9-37.2,31.2-1.4,1-3.2,1.5-4.9,1.5H223.9c-1.8,0-3.5-.5-4.9-1.5-13.2-9.3-25.7-19.7-37.2-31.2-1.1-1.1-1.8-2.3-2.2-3.6h0c1.5-.4,3.1-.8,4.9-1.3,9.2-2.4,23.3-5.9,39.2-9.8h336.6c7.7,0,11.5,9.3,6.1,14.7Z"></path>
  <path class="cls-4" d="M328.8,195.2v195.3c-.2.7-.2,1-.2,1.4-.2.2-.2.5-.2,1-.2.3-.3,1-.5,1.7,0,0,0,.2-.2.5,0,.3-.2.5-.2.9-.2.2-.2.3-.2.5-.2.3-.3.5-.3.9-.2.2-.3.5-.5.9v.2c-.2.3-1.4,2.4-1.7,2.9-.2.3-.3.5-.5.7-.9,1.2-1.7,2.2-2.9,3.2,0,.2-.2.3-.3.3-.5.5-1,.9-1.5,1.4-.3.2-.7.3-.9.5-.7.3-1.2.7-1.7,1-.2.2-.3.2-.5.3-.3.2-.5.2-.7.3-.3.2-.7.3-1,.5-.3,0-.7.2-.9.3-.3,0-.7.2-1,.3-.2,0-.5.2-.7.2h-.2s-.2,0-.2.2h-.5c-.3.2-.5.2-.9.2q-.2.2-.3.2c-.3,0-.5.2-.9.2-.9.2-1.7.2-2.4.2h-3.6c-.3-.2-.7-.2-1.2-.2s-.7-.2-1-.2c-.3-.2-.9-.2-1.2-.3-.3,0-.7-.2-1-.3-.3,0-.7-.2-1-.3h-.2c-.3-.2-.5-.2-.9-.3s-.7-.2-.9-.3c-.2-.2-.3-.2-.5-.3-.2,0-.3-.2-.5-.2-2.1-1.2-3.9-2.6-5.6-4.1-4.1-4.3-6.7-10.1-6.7-16.4v-193.1c0-12.8,10.3-23.1,23.1-23.1s23.1,10.3,23.1,23.1Z"></path>
  <path class="cls-4" d="M713.7,374.6c-2.6,4.8-5.5,8.4-7.9,10.9-13.7,15.4-35.4,22.2-56.6,22.2s-13.5-.7-19.8-2.1h-.3c-.2,0-.2-.2-.3-.2h-.5c-.3-.2-.7-.2-1-.3-.2,0-.5,0-.7-.2-.3,0-.5,0-.7-.2-.5,0-.7-.1-.9-.3h0s0,0,0,0h-.2c-.3,0-.7-.2-1-.2s-.2-.2-.3-.2c-.7-.2-1.4-.3-1.9-.5-.5-.2-.9-.2-1.4-.3-.3-.2-.7-.2-1.2-.3l-.2-.2c-.9-.2-1.5-.5-2.4-.9-.7-.2-1.2-.3-1.9-.5-.4-.2-.7-.3-1.2-.5-.8-.3-1.9-.7-2.9-1.2-.7-.4-1.4-.5-2.1-.9h-.2c-.7-.3-1.5-.7-2.2-1.2-.5-.2-1-.5-1.5-.7-1.4-.7-2.6-1.4-3.8-2.2-.5-.2-1-.5-1.4-.9-.3-.2-.9-.5-1.2-.7-.3-.2-.7-.5-.8-.7-.4-.3-.7-.5-1-.7-.7-.5-1.4-1-2.1-1.5-.2-.3-.5-.7-.9-.9-.5-.5-1.2-1.2-1.7-1.7-.3-.2-.5-.5-.7-.7l-.2-.2c-.2-.2-.3-.5-.5-.7-.3-.2-.5-.5-.7-.9-.3-.2-.5-.5-.7-.7-.2-.2-.3-.5-.5-.7-.3-.7-.8-1.2-1.2-1.9-.2-.3-.3-.7-.5-.9-.3-.7-.7-1.4-.8-1.9-.3-.5-.5-1.2-.7-1.9-.2-.2-.2-.4-.3-.7,0-.2,0-.3-.2-.5,0-.2-.2-.5-.2-.9-.3-1.4-2.9-11.6,2.7-19.7,4.8-6.8,12.8-8.7,15.4-9.2,1.5-.2,3.1-.3,4.4-.3h1.9c.7.2,1.4.2,1.7.3h.7c.2,0,.5.2.8.2.5.2,1,.2,1.5.3.3.2.7.2.9.3.5.2.8.2,1.2.3h.2l1,.5c.3,0,.7.2.9.3h.3c.3.2.7.3,1,.5.2,0,.4.2.7.2.2.2.3.3.7.3.3.2.7.3.9.5.2,0,.3.2.5.2.3.2.7.3.9.5h.2c.3.3.7.5,1,.7,1.7.9,3.6,1.9,5.3,2.9.3.2.7.3,1.2.5.5.4,1,.7,1.5.9.3.2.5.3.7.3.2.2.3.2.5.3.5.2.9.4,1.2.5.2.2.5.2.7.3.2,0,.3.2.7.3.2,0,.3.2.7.2.4.2.9.5,1.4.7.2,0,.3.2.7.2.3.2.7.3,1,.3.3.2.7.3,1,.3,0,.2.2.2.2.2.8.2,1.4.3,2.1.5,0,0,1,.3,1.9.5.5,0,1,.2,1,.2h.5c.3,0,.7.2.9.2h1.2c.3,0,.7.2.9.2h1.4c1,0,1.9,0,2.9-.2,2.9-.2,9.2-.9,12.5-5.6,1.9-2.6,2.4-6.2,1.7-8.9,0-.2,0-.3-.2-.7,0-.2-.2-.5-.2-.7-.2-.2-.2-.3-.3-.5v-.2c0-.2-.2-.3-.3-.5,0-.3-.2-.5-.3-.7,0-.2-.2-.3-.3-.5-.2-.2-.3-.2-.3-.3-.2-.2-.4-.3-.4-.5-.2,0-.3-.2-.5-.3-.2-.2-.3-.3-.3-.3-.9-.7-1.7-1.4-2.7-2.1-.3,0-.5-.2-.7-.3-.2,0-.3-.2-.7-.3-1-.5-2.2-1-3.6-1.7-.3-.2-.9-.3-1.4-.5-1.5-.7-3.2-1.2-5.1-1.9h-.2c-.7-.3-1.2-.7-1.9-.9-.8-.3-1.7-.7-2.7-1-.3-.2-.9-.3-1.4-.5-1.2-.5-2.7-1-4.1-1.5-19.7-7.7-30.9-12.1-40.5-22.2-10.6-11.3-13.2-23.6-13.7-26-.5-2.9-2.2-12.8,1.2-24.6,4.8-16.2,16.1-25.6,20.9-29.4.5-.3,1-.9,1.5-1.2.3-.3.8-.7,1.2-1,.3-.2.7-.3,1-.7.5-.3,1-.7,1.5-1,.5-.2.9-.5,1.4-.9.2-.2.5-.2.7-.3,1-.7,2.1-1.2,3.1-1.7.5-.3,1-.5,1.4-.8.5-.2.9-.4,1.2-.5.5-.3,1.2-.5,1.7-.9h.2s.2,0,.4-.2c.3-.2.7-.4,1-.4.3-.2.9-.5,1.4-.7.3-.2.8-.3,1.2-.3v-.2h.3c.8-.3,1.9-.7,2.9-1,.3-.2.7-.3,1-.3h.2c.5-.2.9-.3,1.4-.5.2,0,.3,0,.5-.2h.5l.2-.2c.3,0,.5-.2.8-.2.5-.2,1.2-.3,1.7-.5.7-.2,1.2-.2,2.1-.3h.2s0,0,0,0c.7-.2,1.2-.3,1.9-.5h.9c.2-.2.3-.2.3-.2.4,0,.7,0,.9-.2h1c.3-.2.5-.2.8-.2h.3c.2,0,.3-.2.7-.2h.2c.5,0,1-.2,1.5-.2,1,0,2.1-.2,3.1-.2s.7-.2,1.2-.2h3.6c12.8,0,25.6,3.1,36.4,9.1,3.9,2.2,22.7,12.8,23.6,28,0,2.2.5,10.8-5.3,17.3-.5.5-2.1,2.2-4.8,3.8-3.8,2.2-8.2,3.1-12.3,3.1-8,0-15.4-3.1-16.4-3.6-2.6-1-5-2.4-8.4-4.3-7.5-4.3-8.2-5.5-11.8-6.3-1-.3-2.9-.9-5.3-.9h-1c-.3,0-.3.2-.7.2h-.9c-.3.2-.7.2-.8.3-.3,0-.7,0-1,.2-.2,0-.3.2-.5.2,0,0-.2.2-.3.2s-.2,0-.2.2h-.3c-.3.2-.5.3-.7.3-.2.2-.5.3-.7.3-.5.3-5.1,3.4-5.7,8.7,0,0-.3,2.7.9,5.5.2.2.2.5.3.7s.2.3.3.3v.2s0,.2.2.2c.2.2.3.3.3.7.2,0,.2.2.4.2,0,.2.2.2.2.3h.2q0,.2.2.2l.5.5c.2.2.3.3.5.5q.2.2.4.3c.2.2.5.3.7.5h.2c.2.2.3.3.5.3,0,.2.2.2.3.2.2.2.3.3.5.5.3.2.5.2.9.3,1.4.9,2.9,1.5,4.4,2.1.3.2.7.3,1,.5.2,0,.3.2.7.2,0,0,0,0,0,0,1.2.5,2.4.9,3.6,1.4.5.2,1,.3,1.7.5.7.2,1.2.3,1.9.5,2.4.7,4.6,1.4,6.7,2.1,12.8,3.9,33.7,10.6,46.7,28.4,1,1.2,2.4,3.1,3.8,5.8,9.1,16.9,6.5,37.8-1.5,52.7Z"></path>
  <path class="cls-4" d="M406.7,179.1c0,14.9-12,27-26.8,27s-27-12.1-27-27,12.1-26.8,27-26.8,26.8,12,26.8,26.8Z"></path>
  <path class="cls-4" d="M559.8,375.6c-2.6,4.8-5.5,8.4-7.7,10.9-.9.9-1.5,1.7-2.4,2.6-.3.3-.5.5-.7.7s-.3.2-.3.3c-.3.3-.7.5-1,.9-.9.7-1.5,1.5-2.4,2.2-.3.2-.7.5-1.2.9-.3.2-.7.5-1.2.9-.3.3-.7.5-1.2.9-.9.7-1.7,1.2-2.7,1.9-.3.2-.5.3-.9.5-1,.7-1.9,1.2-2.9,1.7-.7.3-1.4.7-2.1,1.2h-.2c-.2,0-.2.2-.3.2-11.8-.2-23.6-.3-35.6-.3s-24.3.2-36.4.5h-4.4c-7.4,0-14.9-.2-22.2-.2h-5.5c-20.3-.2-40.7-.2-61-.2-1.4-.2-3.4-.5-5.8-1.7-2.6-1.4-3.9-3.1-4.6-3.9-2.9-3.6-3.2-7.7-3.4-9.7,0-.7-.2-1.4-.2-1.9.3-43.6.7-87,1.2-130.5,0-.5,0-1,.2-1.7.3-.7.2-1,.3-2.1.2-.5,2.6-8.6,9.6-13.9,4.3-3.4,10.8-6.2,17.4-6.2s6.7.7,9.9,2.4c6,3.2,9.6,9.4,10.4,12.7.5,2.2.9,4.8.9,4.8.2,2.4.2,4.3.2,4.6-.2,3.6-.9,46.7-1.7,106.4h30.1c6.2-9.1,12.3-11.8,16.8-12.8,1.4-.2,2.6-.3,3.9-.3,14.2,0,26,14.9,43.8,14.9s1.9,0,2.9-.2c2.9-.2,9.2-.9,12.5-5.6,1.9-2.6,2.4-6.2,1.9-8.9-1.7-7.7-12.5-10.1-27.9-16.1-19.5-7.7-31-12.1-40.4-22.2-10.6-11.3-13.2-23.6-13.7-26-.5-2.9-2.2-12.8,1.2-24.6,4.6-16.2,16.1-25.7,20.7-29.4,13.3-10.6,30.4-15.7,47.2-15.7s25.8,3.1,36.3,9.1c14.4,8.2,22.1,20.5,23.4,27.2,1,4.4.3,8.4.3,8.4-1.2,5.1-4.3,8.6-5.5,9.7-.3.5-2.2,2.2-4.8,3.8-3.8,2.2-8,3.1-12.1,3.1-8.2,0-15.6-3.1-16.6-3.6-2.4-1-4.8-2.4-8.2-4.3-7.7-4.3-8.2-5.5-11.8-6.3-1-.3-3.1-.9-5.5-.9s-4.6.5-7,1.9c-.5.3-5.3,3.4-5.8,8.7,0,0-.2,2.7,1,5.5,3.1,7,17.1,10.3,26.5,13.2,12.7,3.9,33.5,10.6,46.7,28.4.9,1.2,2.2,3.1,3.8,5.8,9.1,16.9,6.3,37.8-1.7,52.7Z"></path>
  <g>
    <path class="cls-4" d="M363.5,426.4v5.8c0,.2-.2.3-.2.5v.9c0,.2-.2.5-.2.7v.5c-.2.5-.2.9-.2,1.2-.2.2-.2.3-.2.3v.2c0,.2-.2.3-.2.7s-.2.5-.2.7,0,.3-.2.3c0,.3,0,.5-.2.7v.5c-.2.2-.2.3-.3.7,0,.2-.2.5-.2.7l-.5,1c0,.3-.2.5-.3.8-.2.3-.3.7-.5,1v.2c-.2.2-.3.5-.3.7-.2,0-.2.2-.2.3-.2.2-.3.3-.3.5-.2.3-.3.7-.7.8,0,.2-.2.3-.2.5-.2.2-.3.3-.3.5-.5.7-3.2,4.4-8.2,7.7-7.5,5-15.4,5.7-17.6,5.8h-.5c-.5,0-.9.2-1.4.2s-.7,0-.9.2h-1c-.9.2-1.7.3-2.7.3-.5.2-1,.2-1.5.3-2,.3-4.3.7-6.7,1-.3.2-.7.2-1,.2-.7.2-1.4.3-2.1.3-.7.2-1.4.3-2,.5h-.3c-.5.2-1,.2-1.7.3-.9.2-1.7.3-2.6.5-1,.2-2.1.3-3.2.7-.5,0-1,.2-1.5.2-.7.2-1.4.3-2,.5h-.2c-.9.2-1.5.3-2.2.5-2.1.3-4.3.9-6.3,1.2-1.4.3-2.7.7-3.9.9-1.5.3-3.1.7-4.6,1-.3.2-.8.2-1.4.3-.9.2-1.7.3-2.7.5-.2.2-.5.2-.9.2-.7.2-1.2.3-1.9.5-.3,0-.5,0-.9.2-.2,0-.3,0-.5.2-.9.2-1.5.2-2.2.3-.3.2-.5.2-.7.2-.9.2-1.9.5-2.7.7-.9.2-1.5.3-2.2.5-.5,0-1,.2-1.5.3-.7.2-1.4.3-2,.3-1.4.4-2.9.7-4.3,1-.2.2-.5.2-.7.2-.5.2-1,.2-1.5.3-.2,0-.3.2-.7.2-1.4.4-2.9.7-4.3,1-1.5.3-2.9.7-4.3,1-.4,0-.8.1-1.2.2-.8.2-1.6.4-2.4.6-.7.2-1.5.3-2.2.5-3.9.9-7.9,1.7-11.8,2.7-.7.2-1.4.3-2.2.5-.5.2-1.2.3-1.7.5-.5,0-1,.2-1.4.2-1.9.5-3.6.9-5.3,1.4-.7.2-1.5.3-2.2.5-.2,0-.3,0-.3.2-.5,0-1,.2-1.4.2-.7.2-1.5.3-2.2.7-.5,0-1,.2-1.5.3-2,.5-3.9.9-5.8,1.4-.3.2-.9.2-1.2.3-.5.2-1,.2-1.7.3-.4.2-.9.3-1.4.3-.2.2-.3.2-.3.2-.5,0-.9.2-1.2.2-.3.2-.9.4-1.2.4-.7.2-1.4.3-2,.5-1.4.3-2.7.7-4.1,1-.4.2-.7.2-1,.3h-.5c-.5.2-1,.3-1.4.5-2,.3-3.8.9-5.5,1.4-.5,0-1,.2-1.4.3h-.3c-.7.2-1.4.3-1.9.5-11.3,2.9-15.6,4.3-24.3,5.8-8.7,1.5-20.3,3.6-34,3.6s-21.9-1.2-34-4.6c-5.1-1.4-13.7-3.9-22.4-8.7-26.5-14.7-54.9-51-50.3-94.4,5.8-54.4,58.6-77.8,68.4-82.1,1.2-.5,2.4-1,3.6-1.5.3,0,.7-.2,1-.3,1.2-.5,2.4-.9,3.6-1.4,1-.4,2.2-.7,3.2-1h.1c0-.2.1-.2.2-.2.3-.2.9-.2,1.2-.3.7-.2,1.4-.5,2-.7.5,0,1-.2,1.4-.3.9-.2,1.5-.3,2.2-.5,1-.3,1.9-.5,2.7-.7.9-.2,1.7-.3,2.6-.5s1.5-.3,2.4-.5c.7-.2,1.4-.2,2.1-.3.3-44.1.3-62.9.3-63.8v-2.7c.7-8,7.2-15.9,15-19.5,3.4-1.5,7.4-2.4,11.3-2.4,6.3,0,12.5,2.2,16.6,6.5,4.8,5.5,5.3,13.5,5.5,14v2.4c-.3,6-1.2,62.6-2.6,150.5,5.5-.3,27.5-1.9,40.9-17.8,5.1-6,7-11.6,7.5-13,2.9-9.1,4.3-24.3-4.1-33.2-8.9-9.4-20.7-3.9-30.3-14.2-2.7-2.9-4.8-7.2-5.6-13.7-3.4-28.6,31.1-38.1,35.7-63.1,1.5-7.5-.3-13.3-.7-14.9-3.1-11.5-10.8-18.3-13.5-20.5-8.6-7.5-20.2-10.4-32.5-10.4h-3.9q-.2,0-.3.2h-1.2c-.5,0-.9,0-1.4.2-.7,0-1.2,0-1.7.2-.7,0-1.2,0-1.9.2-.3,0-.9,0-1.4.2h-.3c-.5,0-1.2.2-1.7.2-.5.2-1,.2-1.7.4-.5.2-1,.2-1.7.3-.3,0-.9.2-1.2.2-.3.2-.7.2-1,.3-.5,0-.9,0-1.2.2-.5.2-1,.2-1.5.3-1.2.4-2.2.5-3.4.9-.5.2-1,.3-1.5.5-2.2.5-4.4,1.2-6.5,1.9-.3.2-.9.3-1.2.5h-.2c-.5.2-.9.3-1.5.5,0,.2-.2.2-.2.2-1,.3-2.1.7-2.9,1.2-.7.2-1.2.3-1.7.7-.7.2-1.2.5-1.9.7-.5.3-1.2.5-1.7.9-.2.2-.5.2-.7.3-.3.2-.7.3-1,.5-.3.2-.9.3-1.2.5-.3.2-.7.3-1,.5-.5.3-1,.5-1.5.9-15.4,8.4-19.7,17.1-20.7,21.2-1.7,7-.9,13.3-.9,13.3.2,1.9.7,4.3.9,4.8.9,3.2,1.9,4.9,2.2,8.2.9,7.9-2.7,18.5-11.3,23.6-3.8,2.4-7.9,3.1-11.5,3.1s-8.5-1.4-9.4-1.7c-18.3-6.7-21-33.2-21.4-36.6-.5-4.1-1-16.2,6-31.5,20-42.6,76.8-55.2,84.1-56.8.3-.2.7-.2,1.2-.3.3,0,.9-.2,1.4-.4.7,0,1.2-.2,1.9-.2.2-.2.5-.2.9-.2.4-.2.7-.2,1-.2l.2-.2c.5,0,1-.2,1.4-.2,1-.2,2.2-.3,3.2-.5.3,0,.8,0,1.2-.2,1-.2,2.2-.2,3.4-.3h.4c.7-.2,1.4-.2,2.2-.3.3,0,.9,0,1.2-.2h1.4c.5-.2,1.2-.2,1.7-.2h.7c.5-.2,1.2-.2,1.7-.2.9,0,1.7-.2,2.6-.2h2.6c.7-.2,1.5-.2,2.2-.2h3.1c22.9,0,51.5,5,70.8,25.7,2.4,2.4,9.2,10.1,14,22.1,12,29.2,4.6,67-17.6,85.2-2.1,1.5-3.8,2.9-5.1,3.6,5,2.4,11.8,6.5,18.3,13.2,18.8,19.5,24.1,50.8,15.6,76.1-.3.7-.7,1.5-1,2.4v.4c-.5,1.2-1,2.2-1.4,3.2-.2.5-.5.8-.7,1.4-.9,1.9-1.9,3.6-2.9,5.5-.2.4-.5.9-.7,1.2-.3.5-.7,1-1,1.5-.2.3-.4.7-.7,1-.5.7-1,1.4-1.5,2.2-.2.3-.5.7-.8,1-.7,1-1.4,1.9-2.1,2.7-.2.2-.4.3-.4.3-.2.3-.5.5-.7.9l-1,1v.2c-.3.3-.7.8-1.2,1.2-.2.3-.5.7-.9,1-.3.3-.7.7-1,.9-1.2,1.4-2.4,2.6-3.8,3.6-.3.3-.7.7-1.2,1-.3.3-.7.7-1,1-.7.5-1.2,1-1.9,1.4-.5.5-1.2,1-1.7,1.4-.5.4-.9.7-1.2,1-.3.2-.7.3-.9.5-.9.5-1.5,1.2-2.4,1.5-.3.3-.7.5-1,.9-1,.7-2.1,1.2-3.1,1.9-.3.2-.7.5-1,.7-3.8,2.2-7.3,4.1-10.6,5.8-.3,0-.7.2-1,.3-.9.5-1.7.9-2.6,1.4-.5.2-1,.3-1.5.5-.5.3-1,.5-1.5.7-.5.3-1,.5-1.4.7-.3.2-.5.2-.7.3-.3,0-.5.2-.7.2-2.9,1.4-5.1,2.2-7,2.9,0,0-20.9,7.5-43.4,7.5h-3.2c-.5,0-1,0-1.7-.2h-2.2c-.2-.2-.5-.2-.9-.2h-.3c-.5,0-1-.2-1.5-.2s-1-.2-1.5-.2h-.2c-.3-.2-.7-.2-1-.2h-.2c-.2,0-.5-.2-.9-.2h-.3c-.5-.2-1-.2-1.5-.3h-.3c-.7-.2-1.4-.3-2.1-.5-.4,0-.7-.2-1-.2-.2-.2-.3-.2-.5-.2s-.3-.2-.5-.2c-.7-.2-1.2-.4-1.7-.5h-.3v-.2c-.3,0-.5,0-.9-.2,0,0,0,0-.1,0,0,0,0,0,0,0,0,0-.1-.1-.2-.1-.2,0-.5,0-.7-.2-.3-.2-.5-.2-.7-.2-.4-.2-.9-.3-1.4-.5-1-.5-3.2-1.4-5.5-3.4-3.8-3.4-5.1-7.7-5.5-9.2-1-3.6-1-8.5-1-8.7v-2.4c.2-3.4.3-6.7.5-9.9,0,0,0,0,0-.1.1-.8.1-1.8.1-2.6.3-8.2.9-16.4,1.2-24.8.2-.9.2-2.2.7-3.9,1-4.1,2.9-6.8,4.1-8.5,2.4-3.4,5.3-7.7,8.9-13.3h-1c0,.2-.2.2-.3.2h-.3c-.5,0-.9.2-1.4.2s-1,.2-1.5.3c-.7,0-1.2.2-1.9.2-.3.2-.7.2-1,.3h-.4c-.3,0-.7.2-1.2.2v.2h-.3c-.3,0-.9.2-1.4.3-.4,0-.7.2-1,.2-.7.2-1.4.3-2.2.7-.5,0-.9.2-1.4.3-.3,0-.7.2-1,.2-.5.3-1.2.5-1.9.7-.3.2-.5.2-.9.3-.3,0-.7.2-1,.3-.2,0-.5.2-.9.3-.4,0-.7.2-1,.3s-.5.2-.9.3c-.2,0-.5.2-.9.3-.5.2-1.2.5-1.7.7h-.2c-.3.2-.5.3-.8.4h0c-.2.2-.5.3-.7.3q-.2.2-.3.2c-.5.3-.9.5-1.4.7-.2.2-.5.3-.8.5-.2,0-.5.2-.7.3-.7.3-1.2.7-1.7.8,0,.2-.2.2-.2.2-.5.2-1,.5-1.5.9-1.2.7-2.2,1.4-3.4,2.2-.2.2-.5.3-.7.5-.3.2-.7.3-.9.5l-.2.2c-.5.3-1,.7-1.5,1l-.7.7c-.3.2-.5.3-.9.5q0,.2-.2.2c-.3.5-.9.9-1.2,1.2-.2,0-.2.2-.2.2-.5.3-1,.9-1.5,1.4-1,1-2.2,2.1-3.2,3.2-.4.5-.7.8-1,1.2-.2.3-.5.5-.7.9-.4.3-.7.7-.9,1.2-6.8,8.7-9.6,17.6-10.1,19-1.7,5.3-4.6,18.1-.7,31.5,8.2,28.6,40.2,37.6,44.5,38.8,6.8,1.9,13.2,2.2,17.4,2.2s4.5-.1,5.5-.2c21.2-1.4,39.3-6.6,39.3-6.6,9.1-2.6,28.4-6.2,67-13.5,35.1-6.6,62.6-10.1,76.2-11.7,19.1-2.3,35.2-3.7,46.9-4.5h2.3c0,.4.1.8.2,1.1Z"></path>
    <path class="cls-4" d="M135.9,441.8v.2h.7c-.2,0-.5,0-.7-.2Z"></path>
  </g>
</svg>